# xmcd
#
# Track frame offsets:
#	150
#	24624
#	40948
#	62948
#	77335
#	93419
#	122128
#	137510
#	161923
#	177234
#	195471
#	209053
#
# Disc length: 3013 seconds
#
# Revision: 0
# Processed by: cddbd v1.5.2PL0 Copyright (c) Steve Scherf et al.
# Submitted via: SynApp - FreeCDDB Version: 2.4
#
DISCID=a60bc30c
DTITLE=Julian Sas - Spirits Of The Rise
DYEAR=2000
DGENRE=Blues
TTITLE0=A Light in the Dark
TTITLE1=Hear my Call
TTITLE2=I believe to my Soul
TTITLE3=If I had Wings
TTITLE4=Loneliness
TTITLE5=Losing Ground
TTITLE6=Mean Streets
TTITLE7=Morning Rain
TTITLE8=Right Thing
TTITLE9=Roll on
TTITLE10=State of Mind
TTITLE11=Tale Spreader
EXTD=
EXTT0=
EXTT1=
EXTT2=
EXTT3=
EXTT4=
EXTT5=
EXTT6=
EXTT7=
EXTT8=
EXTT9=
EXTT10=
EXTT11=
PLAYORDER=
